<?xml version="1.0" encoding="utf-8"?>
<!-- Generator: Adobe Illustrator 28.1.0, SVG Export Plug-In . SVG Version: 6.00 Build 0)  -->
<svg version="1.1" id="Layer_1" xmlns="http://www.w3.org/2000/svg" xmlns:xlink="http://www.w3.org/1999/xlink" x="0px" y="0px"
	 viewBox="0 0 200 200" enable-background="new 0 0 200 200" xml:space="preserve">
<path id="Path_115" fill="#717402" d="M181.9,200c-4.3,0-7.8-3.5-7.8-7.8v-20.5c0-18.3-14.8-33.1-33.1-33.1H59
	c-18.3,0-33.1,14.8-33.1,33.1c0,0,0,0,0,0v20.5c0,4.3-3.5,7.8-7.8,7.8s-7.8-3.5-7.8-7.8c0,0,0,0,0,0v-20.5c0-27,21.8-48.8,48.8-48.8
	H141c26.9,0,48.8,21.9,48.8,48.8v20.5C189.8,196.5,186.3,200,181.9,200C181.9,200,181.9,200,181.9,200z"/>
<path id="Path_116" fill="#717402" d="M100,0c27,0,48.8,21.8,48.8,48.8S127,97.6,100,97.6S51.2,75.8,51.2,48.8c0,0,0,0,0,0
	C51.2,21.9,73.1,0,100,0z M100,81.9c18.3,0,33.1-14.8,33.1-33.1c0-18.3-14.8-33.1-33.1-33.1S66.9,30.5,66.9,48.8c0,0,0,0,0,0
	C66.9,67.1,81.7,81.9,100,81.9z"/>
</svg>
